<svg xmlns="http://www.w3.org/2000/svg" viewBox="0 0 512 512" fill="none">
  <defs>
    <linearGradient id="bg" x1="0" y1="0" x2="1" y2="1">
      <stop offset="0%" stop-color="#5865F2"/>
      <stop offset="100%" stop-color="#7C3AED"/>
    </linearGradient>
    <linearGradient id="glow" x1="0" y1="0" x2="0" y2="1">
      <stop offset="0%" stop-color="#818CF8"/>
      <stop offset="100%" stop-color="#5865F2"/>
    </linearGradient>
  </defs>

  <!-- Fond arrondi -->
  <rect width="512" height="512" rx="110" fill="url(#bg)"/>

  <!-- Bulle de chat (base) -->
  <path d="M96 140 C96 114 116 96 142 96 L370 96 C396 96 416 114 416 140 L416 300 C416 326 396 344 370 344 L290 344 L256 400 L222 344 L142 344 C116 344 96 326 96 300 Z" fill="white" fill-opacity="0.12"/>
  <path d="M96 140 C96 114 116 96 142 96 L370 96 C396 96 416 114 416 140 L416 300 C416 326 396 344 370 344 L290 344 L256 400 L222 344 L142 344 C116 344 96 326 96 300 Z" stroke="white" stroke-opacity="0.25" stroke-width="3" fill="none"/>

  <!-- Enclume (forge) centrée dans la bulle -->
  <!-- Corps de l'enclume -->
  <rect x="176" y="230" width="160" height="72" rx="12" fill="url(#glow)"/>
  <!-- Corne de l'enclume -->
  <path d="M176 248 L136 268 C126 272 126 286 136 290 L176 302 Z" fill="url(#glow)"/>
  <!-- Dessus de l'enclume (table) -->
  <rect x="156" y="196" width="200" height="44" rx="8" fill="white"/>
  <!-- Pied de l'enclume -->
  <rect x="208" y="302" width="96" height="18" rx="6" fill="url(#glow)" opacity="0.8"/>

  <!-- Étincelles (marteau qui frappe) -->
  <!-- Étincelle 1 -->
  <circle cx="312" cy="168" r="6" fill="#FCD34D"/>
  <line x1="312" y1="155" x2="312" y2="148" stroke="#FCD34D" stroke-width="3" stroke-linecap="round"/>
  <line x1="322" y1="158" x2="327" y2="153" stroke="#FCD34D" stroke-width="3" stroke-linecap="round"/>
  <line x1="325" y1="168" x2="332" y2="168" stroke="#FCD34D" stroke-width="3" stroke-linecap="round"/>
  <!-- Étincelle 2 -->
  <circle cx="348" cy="188" r="4" fill="#FCD34D" opacity="0.7"/>
  <line x1="348" y1="178" x2="348" y2="173" stroke="#FCD34D" stroke-width="2.5" stroke-linecap="round" opacity="0.7"/>
  <line x1="355" y1="183" x2="359" y2="179" stroke="#FCD34D" stroke-width="2.5" stroke-linecap="round" opacity="0.7"/>
</svg>
